<svg width="160" height="42" viewBox="0 0 160 42" fill="none" xmlns="http://www.w3.org/2000/svg">
<path d="M58.856 16.2055H53.288V13.6615H67.568V16.2055H61.976V30.7495H58.856V16.2055ZM74.1209 18.3415C74.5849 18.3415 74.9849 18.4055 75.3209 18.5335L75.2969 21.2695C74.7849 21.0615 74.2569 20.9575 73.7129 20.9575C72.6889 20.9575 71.9049 21.2535 71.3609 21.8455C70.8329 22.4375 70.5689 23.2215 70.5689 24.1975V30.7495H67.5929V22.0615C67.5929 20.7815 67.5289 19.6375 67.4009 18.6295H70.2089L70.4489 20.7655C70.7529 19.9815 71.2329 19.3815 71.8889 18.9655C72.5449 18.5495 73.2889 18.3415 74.1209 18.3415ZM88.349 18.6295V30.7495H85.397V28.8055C85.029 29.4775 84.501 30.0055 83.813 30.3895C83.125 30.7575 82.341 30.9415 81.461 30.9415C80.405 30.9415 79.469 30.6855 78.653 30.1735C77.837 29.6615 77.205 28.9335 76.757 27.9895C76.309 27.0455 76.085 25.9495 76.085 24.7015C76.085 23.4535 76.309 22.3495 76.757 21.3895C77.221 20.4135 77.861 19.6615 78.677 19.1335C79.493 18.5895 80.421 18.3175 81.461 18.3175C82.341 18.3175 83.125 18.5095 83.813 18.8935C84.501 19.2615 85.029 19.7815 85.397 20.4535V18.6295H88.349ZM82.277 28.5895C83.269 28.5895 84.037 28.2455 84.581 27.5575C85.125 26.8695 85.397 25.9015 85.397 24.6535C85.397 23.3735 85.125 22.3895 84.581 21.7015C84.037 21.0135 83.261 20.6695 82.253 20.6695C81.261 20.6695 80.485 21.0295 79.925 21.7495C79.381 22.4535 79.109 23.4375 79.109 24.7015C79.109 25.9495 79.381 26.9095 79.925 27.5815C80.485 28.2535 81.269 28.5895 82.277 28.5895ZM97.3524 15.4615C96.0564 15.4615 95.4084 16.1735 95.4084 17.5975V18.6295H98.1204V20.8855H95.4084V30.7495H92.4084V20.8855H90.1044V18.6295H92.4084V17.4535C92.4084 16.0135 92.7684 14.9095 93.4884 14.1415C94.2244 13.3575 95.2724 12.9655 96.6324 12.9655C97.3844 12.9655 98.0164 13.0615 98.5284 13.2535V15.6295C98.0804 15.5175 97.6884 15.4615 97.3524 15.4615ZM111.904 18.6295V30.7495H108.952V28.8055C108.584 29.4775 108.056 30.0055 107.368 30.3895C106.68 30.7575 105.896 30.9415 105.016 30.9415C103.96 30.9415 103.024 30.6855 102.208 30.1735C101.392 29.6615 100.76 28.9335 100.312 27.9895C99.8637 27.0455 99.6397 25.9495 99.6397 24.7015C99.6397 23.4535 99.8637 22.3495 100.312 21.3895C100.776 20.4135 101.416 19.6615 102.232 19.1335C103.048 18.5895 103.976 18.3175 105.016 18.3175C105.896 18.3175 106.68 18.5095 107.368 18.8935C108.056 19.2615 108.584 19.7815 108.952 20.4535V18.6295H111.904ZM105.832 28.5895C106.824 28.5895 107.592 28.2455 108.136 27.5575C108.68 26.8695 108.952 25.9015 108.952 24.6535C108.952 23.3735 108.68 22.3895 108.136 21.7015C107.592 21.0135 106.816 20.6695 105.808 20.6695C104.816 20.6695 104.04 21.0295 103.48 21.7495C102.936 22.4535 102.664 23.4375 102.664 24.7015C102.664 25.9495 102.936 26.9095 103.48 27.5815C104.04 28.2535 104.824 28.5895 105.832 28.5895ZM115.171 13.0855H118.147V30.7495H115.171V13.0855ZM133.141 18.6295V30.3655C133.141 32.2535 132.621 33.6855 131.581 34.6615C130.541 35.6375 129.013 36.1255 126.997 36.1255C125.125 36.1255 123.477 35.7335 122.053 34.9495L122.533 32.6695C124.005 33.4375 125.469 33.8215 126.925 33.8215C129.085 33.8215 130.165 32.7495 130.165 30.6055V28.2055C129.797 28.8615 129.261 29.3975 128.557 29.8135C127.853 30.2135 127.061 30.4135 126.181 30.4135C125.125 30.4135 124.181 30.1655 123.349 29.6695C122.533 29.1575 121.893 28.4455 121.429 27.5335C120.981 26.6055 120.757 25.5495 120.757 24.3655C120.757 23.1815 120.981 22.1335 121.429 21.2215C121.893 20.2935 122.533 19.5815 123.349 19.0855C124.181 18.5735 125.125 18.3175 126.181 18.3175C127.077 18.3175 127.869 18.5095 128.557 18.8935C129.261 19.2615 129.797 19.7815 130.165 20.4535V18.6295H133.141ZM126.973 28.0615C127.965 28.0615 128.741 27.7335 129.301 27.0775C129.877 26.4215 130.165 25.5175 130.165 24.3655C130.165 23.2135 129.885 22.3095 129.325 21.6535C128.765 20.9975 127.981 20.6695 126.973 20.6695C125.981 20.6695 125.197 20.9975 124.621 21.6535C124.061 22.3095 123.781 23.2135 123.781 24.3655C123.781 25.5175 124.061 26.4215 124.621 27.0775C125.197 27.7335 125.981 28.0615 126.973 28.0615ZM147.974 18.6295V30.7495H145.022V28.8055C144.654 29.4775 144.126 30.0055 143.438 30.3895C142.75 30.7575 141.966 30.9415 141.086 30.9415C140.03 30.9415 139.094 30.6855 138.278 30.1735C137.462 29.6615 136.83 28.9335 136.382 27.9895C135.934 27.0455 135.71 25.9495 135.71 24.7015C135.71 23.4535 135.934 22.3495 136.382 21.3895C136.846 20.4135 137.486 19.6615 138.302 19.1335C139.118 18.5895 140.046 18.3175 141.086 18.3175C141.966 18.3175 142.75 18.5095 143.438 18.8935C144.126 19.2615 144.654 19.7815 145.022 20.4535V18.6295H147.974ZM141.902 28.5895C142.894 28.5895 143.662 28.2455 144.206 27.5575C144.75 26.8695 145.022 25.9015 145.022 24.6535C145.022 23.3735 144.75 22.3895 144.206 21.7015C143.662 21.0135 142.886 20.6695 141.878 20.6695C140.886 20.6695 140.11 21.0295 139.55 21.7495C139.006 22.4535 138.734 23.4375 138.734 24.7015C138.734 25.9495 139.006 26.9095 139.55 27.5815C140.11 28.2535 140.894 28.5895 141.902 28.5895ZM157.769 18.3415C158.233 18.3415 158.633 18.4055 158.969 18.5335L158.945 21.2695C158.433 21.0615 157.905 20.9575 157.361 20.9575C156.337 20.9575 155.553 21.2535 155.009 21.8455C154.481 22.4375 154.217 23.2215 154.217 24.1975V30.7495H151.241V22.0615C151.241 20.7815 151.177 19.6375 151.049 18.6295H153.857L154.097 20.7655C154.401 19.9815 154.881 19.3815 155.537 18.9655C156.193 18.5495 156.937 18.3415 157.769 18.3415Z" fill="white"/>
<ellipse cx="20.5" cy="21.305" rx="20.5" ry="20.5784" fill="white"/>
<path d="M19.344 15.9896H13.312V13.2336H28.782V15.9896H22.724V31.7456H19.344V15.9896Z" fill="#5B9BF3"/>
</svg>
